<?xml version="1.0" encoding="utf-8"?>
<!-- Generator: Adobe Illustrator 16.0.0, SVG Export Plug-In . SVG Version: 6.00 Build 0)  -->
<!DOCTYPE svg PUBLIC "-//W3C//DTD SVG 1.1//EN" "http://www.w3.org/Graphics/SVG/1.1/DTD/svg11.dtd">
<svg version="1.1" id="Layer_1" xmlns="http://www.w3.org/2000/svg" xmlns:xlink="http://www.w3.org/1999/xlink" x="0px" y="0px"
	 width="1000px" height="381.384px" viewBox="0 0 1000 381.384" enable-background="new 0 0 1000 381.384" xml:space="preserve">
<g>
	<path fill="#010101" d="M245.411,264.695l-10.713,0.03v53.772h10.713V264.695z M438.201,318.49l-0.016-43.868h9.966v-9.865
		c0,0-20.408-0.055-30.169-0.055c0,3.3-0.008,9.92-0.008,9.92h9.966l0.197,43.868H438.201z M857.796,295.329
		c-2.787-2.951-8.703-7.232-15.882-11.159c-5.413-2.958-5.119-8.494-2.687-10.825c3.353-3.214,7.944-0.999,10.26,0.858
		c1.998,1.611,4.53,4.654,4.53,4.654l6.287-6.373c-4.677-5.591-9.4-9.633-17.438-9.633c-5.838,0-12.498,3.361-14.93,8.998
		c-2.664,6.194-0.434,13.195,4.414,17.454c2.138,1.889,4.003,3.206,6.303,4.662c2.943,1.873,6.227,3.446,9.107,5.428
		c2.424,1.666,3.236,4.701,2.067,7.288c-1.045,2.446-3.787,3.236-6.599,2.594c-3.043-0.697-7.24-4.035-9.655-6.28l-6.799,6.83
		c7.008,7.395,16.835,12.614,27.396,6.713C862.078,312.117,863.457,301.346,857.796,295.329 M352.556,277.425v-10.903
		c0,0-11.073-5.249-22.719-1.254c-9.126,2.912-18.422,11.863-18.396,25.832c0.016,11.996,6.35,19.212,11.224,22.543
		c8.29,5.646,16.068,6.62,26.398,3.724c2.238-0.619,3.435-1.223,3.435-1.223l0.058-10.794c0,0-4.643,2.725-11.294,2.461
		c-10.539,0.202-18.53-7.572-18.53-16.292c0-8.007,4.859-12.699,11.093-15.239c3.434-1.401,7.097-1.688,10.783-1.323
		C347.193,275.203,349.501,275.861,352.556,277.425 M148.852,298.054c1.088,0,3.798,0.024,5.332-0.022
		c11.193,0,17.079-7.426,17.079-16.874c0-10.112-8.398-16.726-17.303-16.726c-4.274,0-15.844-0.039-15.844-0.039v54.105h10.729
		C148.844,318.498,148.852,305.194,148.852,298.054 M516.217,265.36v33.887c0,13.242,9.634,19.63,20.946,19.638
		c11.313-0.008,22.341-6.272,22.341-19.669v-33.848l-10.368-0.016v33.035c0,6.729-3.732,11.39-11.167,11.39
		c-7.611,0-11.46-5.071-11.46-11.305c0-9.509,0.008-33.12,0.008-33.12L516.217,265.36z M730.855,264.718v53.718l30.812,0.063
		v-10.688H741.51v-12.514h20.157v-10.654H741.51v-9.315h20.157v-10.609H730.855z M655.083,318.498h13.614
		c0,0-12.166-14.683-17.679-21.489c9.315-2.548,12.645-10.663,12.552-16.06c-0.069-4.639-2.152-9.425-6.024-12.461
		c-2.694-2.105-5.498-3.438-10.098-3.763c-6.288-0.139-20.691-0.008-20.691-0.008v53.78h10.718v-21.489L655.083,318.498z
		 M989.708,291.178l-65.525,6.01l1.2,13.784c0,0,41.203-3.989,55.374-5.243l-47.329,7.396c1.975,2.509,3.446,3.824,5.057,5.141
		c9.486,7.248,24.315,8.798,35.357,2.386c5.437-3.16,9.447-7.419,10.834-13.769c0.077-0.355,0.162-1.532,0.162-1.532l6.497-0.612
		L989.708,291.178z M76.298,297.202l-66.069-6.017l-1.348,13.489l6.486,0.658c1.61,8.146,6.512,13.645,13.617,16.742
		c7.213,3.144,14.748,3.817,22.415,1.804c5.165-1.362,9.729-3.786,13.218-7.945c0.542-0.635,1.224-1.408,1.851-2.563
		c-11.627-1.874-46.009-7.558-46.009-7.558l54.302,5.103L76.298,297.202z M12.077,368.708h54.422v-35.923H55.778
		c0,0-0.256-3.492-0.461-5.267c-10.806,1.929-21.574,1.642-32.151-1.665l0.039,6.932H12.077V368.708z M933.443,332.87v35.914h54.888
		V332.87h-11.26v-7.311c-10.663,3.748-21.582,3.988-32.438,1.812v5.499H933.443z M629.979,41.004v163.91v23.192h23.634V41.004
		H629.979z M618.929,204.45h-25.701c0,0,0.008-22.094,0.008-32.927v-32.55v-32.147c0-10.845,0.039-21.702-0.008-32.55
		c-0.031-10.798,0-33.271,0-33.271h-23.27v187.102h48.971V204.45z M859.02,228.106c0,0-0.015-22.016,0-32.826
		c0.039-10.864,0.039-21.721,0.047-32.566c0.015-10.721,0.015-21.45,0.031-32.171c0.007-10.856-0.023-21.713,0.054-32.565
		c0.069-10.803-0.132-33.077-0.132-33.077h22.363V41.004h-67.19v23.897h21.349c0,0,0.031,4.417,0.031,6.14v117.8
		c0,11.519-0.031,39.265-0.031,39.265H859.02z M217.174,64.967c5.375,0,10.307,0.039,15.24-0.008
		c5.037-0.046,10.086,0.229,15.208-0.189c0-7.922-0.046-23.765-0.046-23.765h-54.779v187.102h54.779V204.45h-30.34v-65.574h30.34
		c0,0,0.015-15.081,0.015-22.813c-10.214-0.069-20.11,0.031-30.355-0.031C217.236,98.896,217.174,82.173,217.174,64.967
		 M484.112,109.357c0,0,0.023-26.525,0-37.913c-0.039-18.856-12.506-31.392-32.337-31.392c-20.513,0-31.803,17.407-31.552,29.871
		c0.066,3.085,0,6.167,0,9.246c0,40.058,0.19,80.12-0.069,120.178c-0.113,16.711,13.191,27.358,24.439,29.882
		c16.571,3.733,39.345-7.619,39.488-31.555c0.078-13.266,0.031-43.128,0.031-43.128h-22.995c0,0-0.035,29.615-0.051,41.804
		c0,1.34,0.051,2.699-0.166,4.011c-0.674,4.183-4.519,7.496-8.665,7.582c-4.282,0.085-7.376-2.549-8.17-7.288
		c-0.387-2.354-0.457-4.797-0.457-7.197c-0.02-29.341,0.015-58.678,0.039-88.026c0.008-11.658-0.031-23.305,0.062-34.962
		c0.042-5.215,3.268-8.688,7.898-8.874c5.153-0.206,8.897,3.109,9.42,8.433c0.136,1.324,0.097,2.672,0.089,4.011
		c-0.043,10.314,0,35.318,0,35.318H484.112z M182.014,109.357V64.901c-0.023-2.447-1.03-5.428-2.102-7.667
		c-7.945-16.556-32.597-26.096-50.849-10.268c-5.417,4.693-9.525,10.322-9.691,17.818c-0.263,11.523-0.271,23.042-0.294,34.564
		c-0.008,3.806,0.953,7.368,3.102,10.644c8.166,12.425,16.208,24.927,24.358,37.355c2.935,4.48,6.098,8.801,9.114,13.234
		c1.924,2.838,2.892,5.908,2.741,9.443c-0.221,4.948-0.054,9.912-0.054,14.875c0,5.758,0.008,12.538,0.008,18.295
		c0,1.518-0.612,3.384-2.694,4.461c-3.667,1.873-7.566,1.942-11.182-0.024c-1.096-0.596-2.079-2.176-2.238-3.569
		c-0.132-1.138-0.167-2.377-0.167-3.578c-0.008-12.866,0.008-25.725-0.016-38.586c0-1.564,0.016-4.956,0.016-4.956H119.19
		c0,0,0.015,2.528,0.015,3.693c-0.023,14.33-0.023,28.675-0.008,43.009c0.008,8.409,3.647,14.991,10.427,19.792
		c8.619,6.086,18.341,7.551,28.396,5.22c15.716-3.655,24.35-18.354,23.909-29.593c-0.384-9.501-0.484-19.049,0.039-28.532
		c0.522-9.594-1.847-17.984-7.771-25.453c-0.256-0.31-0.5-0.627-0.725-0.968c-9.11-13.71-18.198-27.444-27.331-41.138
		c-1.831-2.745-3.171-5.645-3.221-8.944c-0.124-9.103-0.236-18.225-0.078-27.324c0.024-1.518,1.038-3.418,2.203-4.433
		c3.017-2.625,6.718-2.594,10.237-1.165c3.055,1.506,3.76,4.169,3.76,7.104c-0.047,12.32,0,41.146,0,41.146H182.014z
		 M881.383,329.68c0,0-508.109-0.342-761.797-0.342v10.732c253.681,0,761.797,0.187,761.797,0.187V329.68z M729.313,105.54
		c0,0,0.031-19.13,0-30.258c-0.008-1.332,0.171-8.967-0.611-11.728c-2.904-11.329-9.028-18.441-20.551-22.36
		c-11.941-4.062-23.379-1.893-33.26,6.183c-7.317,5.975-10.484,14.028-10.484,23.386c-0.016,43.558-0.016,87.112,0.016,130.667
		c0,1.734,0.17,3.477,0.402,5.203c1.533,11.778,9.137,20.258,20.752,22.682c8.094,1.673,16.316,1.618,24.331-0.372
		c8.131-2.021,14.032-7.085,17.354-14.875c1.759-4.136,2.354-8.503,2.347-12.964c-0.055-22.255-0.24-44.495-0.295-66.738
		c-0.008-1.166,0-3.767,0-3.767h-33.545v23.471l10.64-0.031c0,0,0.093,29.244-0.03,42.513c-0.016,1.963-0.031,4.065-0.682,5.932
		c-1.231,3.663-5.142,5.498-9.068,5.467c-3.74-0.031-6.342-1.463-7.713-4.716c-0.922-2.385-0.751-7.15-0.751-7.15V70.74
		c0-5.002,4.724-8.859,9.114-8.859c4.097,0,9.084,3.856,9.084,8.662v34.997H729.313z M518.734,228.021V140.75l16.687-0.023v29.402
		c0,9.649-0.022,19.297,0.008,28.95c0.031,9.583-0.008,29.027-0.008,29.027h23.053V41.004h-23.053v75.74h-16.687v-75.74h-23.196
		v187.102L518.734,228.021z M278.558,41.004l-21.326,187.102l26.63,0.008l4.979-50.145l15.256,0.007l5.544,50.214l26.286-0.132
		L314.771,41.004H278.558z M741.239,41.074v187.033h22.487l0.17-87.333h16.758v87.333h23.106V41.004h-23.106v75.814h-16.758
		c0,0,0.055-10.388,0.055-15.329V86.622V71.352c0-4.964,0.047-9.92-0.008-14.875c-0.062-4.894-0.047-15.402-0.047-15.402H741.239z
		 M881.383,242.595H119.546v10.717h761.836V242.595z M344.309,228.106h25.934v-87.415c0,0,9.153,0,10.423,0.294
		c2.068,0.34,3.33,1.928,3.702,3.902c0.395,2.083,0.596,4.24,0.604,6.365c0.038,23.986,0.023,76.853,0.023,76.853h24.517
		c0,0,0.039-54.148-0.016-79.745c-0.008-3.063,0.074-6.09-0.453-9.11c-0.759-4.472-2.876-8.623-7.976-9.668
		c-1.111-0.229-3.028-0.221-3.028-0.221s2.013-0.341,2.753-0.701c4.437-2.099,6.918-6.168,8.015-10.903
		c0.596-2.575,0.77-5.304,0.786-7.96c0.062-15.685,0.039-31.362,0.023-47.043c0-1.467,0.112-3.403-0.104-4.855
		c-1.084-7.55-4.964-13.037-12.386-15.293c-3.399-1.042-7.089-1.549-10.647-1.603c-12.332-0.189-42.168,0-42.168,0V228.106z
		 M104.528,0.064h791.12c0,0,47.483,267.403,49.428,278.206c0.309,1.704,0.72,3.445,1.432,5.01c1.58,3.53,5.157,5.111,9.029,4.228
		c3.268-0.742,5.396-3.244,5.32-7.077c-0.163-7.356-15.108-280.366-15.108-280.366H1000v381.32H0V0.064c0,0,36.089-0.144,54.566,0
		c0,0-14.709,265.033-15.464,278.957c-0.372,6.745,3.783,9.014,8.348,8.642c3.341-0.263,6.036-2.834,6.95-6.822
		C55.112,277.704,104.528,0.064,104.528,0.064"/>
	<path fill="#010101" d="M245.411,264.695l-10.713,0.03v53.772h10.713V264.695z M438.201,318.49l-0.016-43.868h9.966v-9.865
		c0,0-20.408-0.055-30.169-0.055c0,3.3-0.008,9.92-0.008,9.92h9.966l0.197,43.868H438.201z M857.796,295.329
		c-2.787-2.951-8.703-7.232-15.882-11.159c-5.413-2.958-5.119-8.494-2.687-10.825c3.353-3.214,7.944-0.999,10.26,0.858
		c1.998,1.611,4.53,4.654,4.53,4.654l6.287-6.373c-4.677-5.591-9.4-9.633-17.438-9.633c-5.838,0-12.498,3.361-14.93,8.998
		c-2.664,6.194-0.434,13.195,4.414,17.454c2.138,1.889,4.003,3.206,6.303,4.662c2.943,1.873,6.227,3.446,9.107,5.428
		c2.424,1.666,3.236,4.701,2.067,7.288c-1.045,2.446-3.787,3.236-6.599,2.594c-3.043-0.697-7.24-4.035-9.655-6.28l-6.799,6.83
		c7.008,7.395,16.835,12.614,27.396,6.713C862.078,312.117,863.457,301.346,857.796,295.329 M352.556,277.425v-10.903
		c0,0-11.073-5.249-22.719-1.254c-9.126,2.912-18.422,11.863-18.396,25.832c0.016,11.996,6.35,19.212,11.224,22.543
		c8.29,5.646,16.068,6.62,26.398,3.724c2.238-0.619,3.435-1.223,3.435-1.223l0.058-10.794c0,0-4.643,2.725-11.294,2.461
		c-10.539,0.202-18.53-7.572-18.53-16.292c0-8.007,4.859-12.699,11.093-15.239c3.434-1.401,7.097-1.688,10.783-1.323
		C347.193,275.203,349.501,275.861,352.556,277.425 M148.852,298.054c1.088,0,3.798,0.024,5.332-0.022
		c11.193,0,17.079-7.426,17.079-16.874c0-10.112-8.398-16.726-17.303-16.726c-4.274,0-15.844-0.039-15.844-0.039v54.105h10.729
		C148.844,318.498,148.852,305.194,148.852,298.054 M516.217,265.36v33.887c0,13.242,9.634,19.63,20.946,19.638
		c11.313-0.008,22.341-6.272,22.341-19.669v-33.848l-10.368-0.016v33.035c0,6.729-3.732,11.39-11.167,11.39
		c-7.611,0-11.46-5.071-11.46-11.305c0-9.509,0.008-33.12,0.008-33.12L516.217,265.36z M730.855,264.718v53.718l30.812,0.063
		v-10.688H741.51v-12.514h20.157v-10.654H741.51v-9.315h20.157v-10.609H730.855z M655.083,318.498h13.614
		c0,0-12.166-14.683-17.679-21.489c9.315-2.548,12.645-10.663,12.552-16.06c-0.069-4.639-2.152-9.425-6.024-12.461
		c-2.694-2.105-5.498-3.438-10.098-3.763c-6.288-0.139-20.691-0.008-20.691-0.008v53.78h10.718v-21.489L655.083,318.498z
		 M989.708,291.178l-65.525,6.01l1.2,13.784c0,0,41.203-3.989,55.374-5.243l-47.329,7.396c1.975,2.509,3.446,3.824,5.057,5.141
		c9.486,7.248,24.315,8.798,35.357,2.386c5.437-3.16,9.447-7.419,10.834-13.769c0.077-0.355,0.162-1.532,0.162-1.532l6.497-0.612
		L989.708,291.178z M76.298,297.202l-66.069-6.017l-1.348,13.489l6.486,0.658c1.61,8.146,6.512,13.645,13.617,16.742
		c7.213,3.144,14.748,3.817,22.415,1.804c5.165-1.362,9.729-3.786,13.218-7.945c0.542-0.635,1.224-1.408,1.851-2.563
		c-11.627-1.874-46.009-7.558-46.009-7.558l54.302,5.103L76.298,297.202z M12.077,368.708h54.422v-35.923H55.778
		c0,0-0.256-3.492-0.461-5.267c-10.806,1.929-21.574,1.642-32.151-1.665l0.039,6.932H12.077V368.708z M933.443,332.87v35.914h54.888
		V332.87h-11.26v-7.311c-10.663,3.748-21.582,3.988-32.438,1.812v5.499H933.443z M629.979,41.004v163.91v23.192h23.634V41.004
		H629.979z M618.929,204.45h-25.701c0,0,0.008-22.094,0.008-32.927v-32.55v-32.147c0-10.845,0.039-21.702-0.008-32.55
		c-0.031-10.798,0-33.271,0-33.271h-23.27v187.102h48.971V204.45z M859.02,228.106c0,0-0.015-22.016,0-32.826
		c0.039-10.864,0.039-21.721,0.047-32.566c0.015-10.721,0.015-21.45,0.031-32.171c0.007-10.856-0.023-21.713,0.054-32.565
		c0.069-10.803-0.132-33.077-0.132-33.077h22.363V41.004h-67.19v23.897h21.349c0,0,0.031,4.417,0.031,6.14v117.8
		c0,11.519-0.031,39.265-0.031,39.265H859.02z M217.174,64.967c5.375,0,10.307,0.039,15.24-0.008
		c5.037-0.046,10.086,0.229,15.208-0.189c0-7.922-0.046-23.765-0.046-23.765h-54.779v187.102h54.779V204.45h-30.34v-65.574h30.34
		c0,0,0.015-15.081,0.015-22.813c-10.214-0.069-20.11,0.031-30.355-0.031C217.236,98.896,217.174,82.173,217.174,64.967
		 M484.112,109.357c0,0,0.023-26.525,0-37.913c-0.039-18.856-12.506-31.392-32.337-31.392c-20.513,0-31.803,17.407-31.552,29.871
		c0.066,3.085,0,6.167,0,9.246c0,40.058,0.19,80.12-0.069,120.178c-0.113,16.711,13.191,27.358,24.439,29.882
		c16.571,3.733,39.345-7.619,39.488-31.555c0.078-13.266,0.031-43.128,0.031-43.128h-22.995c0,0-0.035,29.615-0.051,41.804
		c0,1.34,0.051,2.699-0.166,4.011c-0.674,4.183-4.519,7.496-8.665,7.582c-4.282,0.085-7.376-2.549-8.17-7.288
		c-0.387-2.354-0.457-4.797-0.457-7.197c-0.02-29.341,0.015-58.678,0.039-88.026c0.008-11.658-0.031-23.305,0.062-34.962
		c0.042-5.215,3.268-8.688,7.898-8.874c5.153-0.206,8.897,3.109,9.42,8.433c0.136,1.324,0.097,2.672,0.089,4.011
		c-0.043,10.314,0,35.318,0,35.318H484.112z M182.014,109.357V64.901c-0.023-2.447-1.03-5.428-2.102-7.667
		c-7.945-16.556-32.597-26.096-50.849-10.268c-5.417,4.693-9.525,10.322-9.691,17.818c-0.263,11.523-0.271,23.042-0.294,34.564
		c-0.008,3.806,0.953,7.368,3.102,10.644c8.166,12.425,16.208,24.927,24.358,37.355c2.935,4.48,6.098,8.801,9.114,13.234
		c1.924,2.838,2.892,5.908,2.741,9.443c-0.221,4.948-0.054,9.912-0.054,14.875c0,5.758,0.008,12.538,0.008,18.295
		c0,1.518-0.612,3.384-2.694,4.461c-3.667,1.873-7.566,1.942-11.182-0.024c-1.096-0.596-2.079-2.176-2.238-3.569
		c-0.132-1.138-0.167-2.377-0.167-3.578c-0.008-12.866,0.008-25.725-0.016-38.586c0-1.564,0.016-4.956,0.016-4.956H119.19
		c0,0,0.015,2.528,0.015,3.693c-0.023,14.33-0.023,28.675-0.008,43.009c0.008,8.409,3.647,14.991,10.427,19.792
		c8.619,6.086,18.341,7.551,28.396,5.22c15.716-3.655,24.35-18.354,23.909-29.593c-0.384-9.501-0.484-19.049,0.039-28.532
		c0.522-9.594-1.847-17.984-7.771-25.453c-0.256-0.31-0.5-0.627-0.725-0.968c-9.11-13.71-18.198-27.444-27.331-41.138
		c-1.831-2.745-3.171-5.645-3.221-8.944c-0.124-9.103-0.236-18.225-0.078-27.324c0.024-1.518,1.038-3.418,2.203-4.433
		c3.017-2.625,6.718-2.594,10.237-1.165c3.055,1.506,3.76,4.169,3.76,7.104c-0.047,12.32,0,41.146,0,41.146H182.014z
		 M881.383,329.68c0,0-508.109-0.342-761.797-0.342v10.732c253.681,0,761.797,0.187,761.797,0.187V329.68z M729.313,105.54
		c0,0,0.031-19.13,0-30.258c-0.008-1.332,0.171-8.967-0.611-11.728c-2.904-11.329-9.028-18.441-20.551-22.36
		c-11.941-4.062-23.379-1.893-33.26,6.183c-7.317,5.975-10.484,14.028-10.484,23.386c-0.016,43.558-0.016,87.112,0.016,130.667
		c0,1.734,0.17,3.477,0.402,5.203c1.533,11.778,9.137,20.258,20.752,22.682c8.094,1.673,16.316,1.618,24.331-0.372
		c8.131-2.021,14.032-7.085,17.354-14.875c1.759-4.136,2.354-8.503,2.347-12.964c-0.055-22.255-0.24-44.495-0.295-66.738
		c-0.008-1.166,0-3.767,0-3.767h-33.545v23.471l10.64-0.031c0,0,0.093,29.244-0.03,42.513c-0.016,1.963-0.031,4.065-0.682,5.932
		c-1.231,3.663-5.142,5.498-9.068,5.467c-3.74-0.031-6.342-1.463-7.713-4.716c-0.922-2.385-0.751-7.15-0.751-7.15V70.74
		c0-5.002,4.724-8.859,9.114-8.859c4.097,0,9.084,3.856,9.084,8.662v34.997H729.313z M518.734,228.021V140.75l16.687-0.023v29.402
		c0,9.649-0.022,19.297,0.008,28.95c0.031,9.583-0.008,29.027-0.008,29.027h23.053V41.004h-23.053v75.74h-16.687v-75.74h-23.196
		v187.102L518.734,228.021z M278.558,41.004l-21.326,187.102l26.63,0.008l4.979-50.145l15.256,0.007l5.544,50.214l26.286-0.132
		L314.771,41.004H278.558z M741.239,41.074v187.033h22.487l0.17-87.333h16.758v87.333h23.106V41.004h-23.106v75.814h-16.758
		c0,0,0.055-10.388,0.055-15.329V86.622V71.352c0-4.964,0.047-9.92-0.008-14.875c-0.062-4.894-0.047-15.402-0.047-15.402H741.239z
		 M881.383,242.595H119.546v10.717h761.836V242.595z M344.309,228.106h25.934v-87.415c0,0,9.153,0,10.423,0.294
		c2.068,0.34,3.33,1.928,3.702,3.902c0.395,2.083,0.596,4.24,0.604,6.365c0.038,23.986,0.023,76.853,0.023,76.853h24.517
		c0,0,0.039-54.148-0.016-79.745c-0.008-3.063,0.074-6.09-0.453-9.11c-0.759-4.472-2.876-8.623-7.976-9.668
		c-1.111-0.229-3.028-0.221-3.028-0.221s2.013-0.341,2.753-0.701c4.437-2.099,6.918-6.168,8.015-10.903
		c0.596-2.575,0.77-5.304,0.786-7.96c0.062-15.685,0.039-31.362,0.023-47.043c0-1.467,0.112-3.403-0.104-4.855
		c-1.084-7.55-4.964-13.037-12.386-15.293c-3.399-1.042-7.089-1.549-10.647-1.603c-12.332-0.189-42.168,0-42.168,0V228.106z
		 M104.528,0.064h791.12c0,0,47.483,267.403,49.428,278.206c0.309,1.704,0.72,3.445,1.432,5.01c1.58,3.53,5.157,5.111,9.029,4.228
		c3.268-0.742,5.396-3.244,5.32-7.077c-0.163-7.356-15.108-280.366-15.108-280.366H1000v381.32H0V0.064c0,0,36.089-0.144,54.566,0
		c0,0-14.709,265.033-15.464,278.957c-0.372,6.745,3.783,9.014,8.348,8.642c3.341-0.263,6.036-2.834,6.95-6.822
		C55.112,277.704,104.528,0.064,104.528,0.064"/>
	<path fill="#010101" d="M369.387,116.977V64.731c3.322,0,7.263-0.074,10.802,0.472c2.289,0.349,3.821,1.944,4.425,4.197
		c0.306,1.149,0.441,2.377,0.441,3.565c0.031,11.522,0.054,23.053-0.023,34.576c-0.016,1.703-0.418,3.458-0.953,5.083
		c-0.895,2.671-2.958,4.162-5.738,4.313C375.551,117.105,372.744,116.977,369.387,116.977"/>
	<path fill="#010101" d="M302.168,152.841h-11.561c1.792-26.057,5.784-84.812,5.784-84.812S300.387,126.808,302.168,152.841"/>
	<path fill="#010101" d="M637.421,288.282v-14.466c0,0,5.9,0,8.106,0c3.919,0,7.194,3.354,7.194,7.411
		c0,3.478-3.112,7.055-7.132,7.055C643.189,288.282,637.421,288.282,637.421,288.282"/>
	<path fill="#010101" d="M148.751,287.275v-12.234c2.567,0,6.207-0.147,7.856,0.449c3.078,0.929,4.212,2.779,4.205,5.745
		c-0.008,2.942-2.149,5.514-5.227,5.931C153.549,287.384,148.751,287.275,148.751,287.275"/>
</g>
</svg>
